<svg id="logo" data-name="Calque 1" xmlns="http://www.w3.org/2000/svg" viewBox="0 0 176 188"><defs><style>.cls-1{fill:#fff;}</style></defs><path class="cls-1" d="M728,440H552V252H728ZM640.48,314.85l1.35,0c-.43-7.29-.71-14.6-1.33-21.87-.56-6.49-1.38-13-2.39-19.41a7.54,7.54,0,0,0-2.64-4.16c-5.29-4.33-11.67-4.14-18-3.76a5.83,5.83,0,0,0-3,1.23,105.31,105.31,0,0,0-18.77,18.21c-5.94,7.41-12.08,14.42-17.19,22.61-7.47,11.95-10,25.06-12,38.31-1.57,10.44-.95,21.09.52,31.78,1.31,9.47,5.19,17.38,10.44,24.71,6.79,9.49,15.41,16.82,26.76,21,10,3.68,20.54,3.79,30.83,5,10,1.16,20.29,1.27,30.21-2,3-1,6.42-.88,9.25-2.17,8.64-3.94,15.44-10,21.23-17.73,6.64-8.91,9.1-19.11,10.81-29.41,1.43-8.59.86-17.52.91-26.31a7.24,7.24,0,0,0-2-4.46c-2.49-2.66-9.15-3.68-12.16-1.54-5.08,3.62-10.34,7.26-14.57,11.78-6.14,6.58-11.67,13.63-20.65,16.61-4.36,1.45-8.39,2.22-12.48-1.13-4.25-3.48-5-8.16-5-12.93C640.35,344.39,640.48,329.62,640.48,314.85Z" transform="translate(-552 -252)"/><path d="M640.48,314.85c0,14.77-.13,29.54.08,44.31.06,4.77.79,9.45,5,12.93,4.09,3.35,8.12,2.58,12.48,1.13,9-3,14.51-10,20.65-16.61,4.23-4.52,9.49-8.16,14.57-11.78,3-2.14,9.67-1.12,12.16,1.54a7.24,7.24,0,0,1,2,4.46c0,8.79.52,17.72-.91,26.31-1.71,10.3-4.17,20.5-10.81,29.41-5.79,7.77-12.59,13.79-21.23,17.73-2.83,1.29-6.25,1.18-9.25,2.17-9.92,3.25-20.23,3.14-30.21,2-10.29-1.19-20.79-1.3-30.83-5-11.35-4.16-20-11.49-26.76-21-5.25-7.33-9.13-15.24-10.44-24.71-1.47-10.69-2.09-21.34-.52-31.78,2-13.25,4.55-26.36,12-38.31,5.11-8.19,11.25-15.2,17.19-22.61a105.31,105.31,0,0,1,18.77-18.21,5.83,5.83,0,0,1,3-1.23c6.33-.38,12.71-.57,18,3.76a7.54,7.54,0,0,1,2.64,4.16c1,6.44,1.83,12.92,2.39,19.41.62,7.27.9,14.58,1.33,21.87ZM703,364.36c0-3,0-6,0-8.94,0-4.26-2.07-6.44-6.27-6.56-5.69-.16-10.23,2.44-14,6.31s-6.8,8.87-11,12.29a77.14,77.14,0,0,1-16.26,10c-4.42,2-9.38,2.58-14-1-4.28-3.3-5.61-7.72-5.6-12.65,0-13.77.46-27.53.34-41.3-.11-12.89-.62-25.79-1.2-38.68a23.77,23.77,0,0,0-2.14-8.17,7,7,0,0,0-3.74-3.45c-10.33-3.44-24.17,2.39-28.65,12.08a20.37,20.37,0,0,1-3.39,4.85c-6.14,6.88-11.85,14-15.79,22.49-3.27,7-7.4,13.64-7.14,21.89.11,3.62-1,7.26-1.34,10.9-.38,4.17-.72,8.35-.72,12.53a105.69,105.69,0,0,0,.72,11.79,117.85,117.85,0,0,0,2.15,14.17c.75,3.17,1.77,6.8,3.91,9,5.95,6.23,9.75,14.32,16.88,19.45a38.12,38.12,0,0,0,6.93,4.09c4.4,1.9,8.83,4.39,13.44,4.95,9.51,1.15,19.15,1.41,28.74,1.61,7.54.16,15.11-.24,22.65-.6a31.78,31.78,0,0,0,6.73-1.47c9.79-2.7,17.32-8.93,20.7-18.06C699.47,389.93,703.89,377.63,703,364.36Z" transform="translate(-552 -252)"/><path class="cls-1" d="M703,364.36c.85,13.27-3.57,25.57-8,37.55-3.38,9.13-10.91,15.36-20.7,18.06a31.78,31.78,0,0,1-6.73,1.47c-7.54.36-15.11.76-22.65.6-9.59-.2-19.23-.46-28.74-1.61-4.61-.56-9-3.05-13.44-4.95a38.12,38.12,0,0,1-6.93-4.09c-7.13-5.13-10.93-13.22-16.88-19.45-2.14-2.23-3.16-5.86-3.91-9a117.85,117.85,0,0,1-2.15-14.17,105.69,105.69,0,0,1-.72-11.79c0-4.18.34-8.36.72-12.53.34-3.64,1.45-7.28,1.34-10.9-.26-8.25,3.87-14.86,7.14-21.89,3.94-8.48,9.65-15.61,15.79-22.49a20.37,20.37,0,0,0,3.39-4.85c4.48-9.69,18.32-15.52,28.65-12.08a7,7,0,0,1,3.74,3.45,23.77,23.77,0,0,1,2.14,8.17c.58,12.89,1.09,25.79,1.2,38.68.12,13.77-.32,27.53-.34,41.3,0,4.93,1.32,9.35,5.6,12.65,4.58,3.53,9.54,3,14,1a77.14,77.14,0,0,0,16.26-10c4.21-3.42,7.17-8.34,11-12.29s8.3-6.47,14-6.31c4.2.12,6.3,2.3,6.27,6.56C703,358.4,703,361.38,703,364.36Z" transform="translate(-552 -252)"/></svg>